<?xml version="1.0" encoding="UTF-8"?>
<svg id="Layer_1" data-name="Layer 1" xmlns="http://www.w3.org/2000/svg" viewBox="0 0 98.18 15.82">
  <defs>
    <style>
      .cls-1 {
        fill: none;
        stroke: #3fa9f5;
        stroke-width: 1.5px;
      }

      .cls-2 {
        fill: #fff;
      }
    </style>
  </defs>
  <g>
    <polygon class="cls-2" points="3.84 14.91 3.84 5.52 .75 5.52 .75 1.49 11.37 1.49 11.37 5.52 8.29 5.52 8.29 14.91 3.84 14.91"/>
    <polygon class="cls-1" points="3.84 14.91 3.84 5.52 .75 5.52 .75 1.49 11.37 1.49 11.37 5.52 8.29 5.52 8.29 14.91 3.84 14.91"/>
  </g>
  <g>
    <path class="cls-2" d="M14.53,15.07c-.74,0-1.44-.13-2.06-.37-.64-.25-1.21-.63-1.68-1.11-.47-.48-.84-1.08-1.1-1.77-.25-.67-.38-1.44-.38-2.29,0-1.13.21-2.11.62-2.92.43-.85,1.07-1.51,1.89-1.95.79-.43,1.72-.64,2.76-.64.99,0,1.88.22,2.66.64.8.44,1.43,1.09,1.89,1.93.44.82.66,1.81.66,2.94,0,.83-.12,1.6-.35,2.27-.24.7-.6,1.3-1.07,1.79-.47.49-1.04.87-1.7,1.12-.64.25-1.36.37-2.14.37ZM14.55,7.85c-.37,0-.45.13-.5.21-.13.2-.28.62-.28,1.46,0,.46.05.86.14,1.17.06.21.15.36.25.44.1.08.27.09.4.09.18,0,.31-.03.38-.09.1-.08.18-.23.24-.43.09-.31.14-.71.14-1.18s-.05-.86-.14-1.16c-.06-.2-.14-.34-.24-.43-.07-.06-.21-.09-.39-.09Z"/>
    <path class="cls-1" d="M14.53,15.07c-.74,0-1.44-.13-2.06-.37-.64-.25-1.21-.63-1.68-1.11-.47-.48-.84-1.08-1.1-1.77-.25-.67-.38-1.44-.38-2.29,0-1.13.21-2.11.62-2.92.43-.85,1.07-1.51,1.89-1.95.79-.43,1.72-.64,2.76-.64.99,0,1.88.22,2.66.64.8.44,1.43,1.09,1.89,1.93.44.82.66,1.81.66,2.94,0,.83-.12,1.6-.35,2.27-.24.7-.6,1.3-1.07,1.79-.47.49-1.04.87-1.7,1.12-.64.25-1.36.37-2.14.37ZM14.55,7.85c-.37,0-.45.13-.5.21-.13.2-.28.62-.28,1.46,0,.46.05.86.14,1.17.06.21.15.36.25.44.1.08.27.09.4.09.18,0,.31-.03.38-.09.1-.08.18-.23.24-.43.09-.31.14-.71.14-1.18s-.05-.86-.14-1.16c-.06-.2-.14-.34-.24-.43-.07-.06-.21-.09-.39-.09Z"/>
  </g>
  <g>
    <path class="cls-2" d="M19.73,14.91V4.17h3.63l.12.51c.2-.14.42-.26.65-.37.45-.2.93-.3,1.43-.3.19,0,.39,0,.61.03.26.02.47.06.64.11l.79.24-.44,4.15-1.06-.19c-.1-.02-.23-.04-.37-.06-.12-.02-.27-.02-.44-.02-.15,0-.3.02-.46.07-.13.04-.24.1-.36.19-.09.07-.17.17-.23.31-.05.1-.1.29-.1.64v5.43h-4.42Z"/>
    <path class="cls-1" d="M19.73,14.91V4.17h3.63l.12.51c.2-.14.42-.26.65-.37.45-.2.93-.3,1.43-.3.19,0,.39,0,.61.03.26.02.47.06.64.11l.79.24-.44,4.15-1.06-.19c-.1-.02-.23-.04-.37-.06-.12-.02-.27-.02-.44-.02-.15,0-.3.02-.46.07-.13.04-.24.1-.36.19-.09.07-.17.17-.23.31-.05.1-.1.29-.1.64v5.43h-4.42Z"/>
  </g>
  <g>
    <path class="cls-2" d="M29.72,15.07c-.66,0-1.27-.13-1.81-.4-.59-.28-1.05-.72-1.39-1.3-.32-.56-.49-1.24-.49-2.04,0-1.24.49-2.24,1.42-2.89.14-.09.28-.18.43-.26l-1.23-2.87.83-.42c.53-.27,1.14-.49,1.8-.64.66-.16,1.4-.23,2.17-.23,1.35,0,2.42.35,3.18,1.03.79.71,1.2,1.74,1.2,3.04v6.82h-3.36l-.19-.48c-.32.21-.68.37-1.06.48-.43.11-.93.17-1.5.17ZM30.65,11.31c.34,0,.52-.12.62-.21.03-.03.09-.07.13-.19-.67.04-.85.16-.85.16-.03.02-.05.04-.05.14,0,.04,0,.06,0,.08,0,0,0,0,.01,0,.03,0,.07,0,.14,0Z"/>
    <path class="cls-1" d="M29.72,15.07c-.66,0-1.27-.13-1.81-.4-.59-.28-1.05-.72-1.39-1.3-.32-.56-.49-1.24-.49-2.04,0-1.24.49-2.24,1.42-2.89.14-.09.28-.18.43-.26l-1.23-2.87.83-.42c.53-.27,1.14-.49,1.8-.64.66-.16,1.4-.23,2.17-.23,1.35,0,2.42.35,3.18,1.03.79.71,1.2,1.74,1.2,3.04v6.82h-3.36l-.19-.48c-.32.21-.68.37-1.06.48-.43.11-.93.17-1.5.17ZM30.65,11.31c.34,0,.52-.12.62-.21.03-.03.09-.07.13-.19-.67.04-.85.16-.85.16-.03.02-.05.04-.05.14,0,.04,0,.06,0,.08,0,0,0,0,.01,0,.03,0,.07,0,.14,0Z"/>
  </g>
  <g>
    <path class="cls-2" d="M47.04,14.91v-6.09c0-.66-.13-.84-.13-.84-.03-.04-.16-.05-.21-.05-.34,0-.4.1-.44.17-.12.21-.25.62-.25,1.44v5.37h-4.42v-6.09c0-.4-.05-.63-.09-.75-.03-.08-.05-.12-.06-.12h0s-.05-.02-.16-.02c-.17,0-.31.03-.37.08-.09.08-.17.24-.22.46-.08.35-.12.8-.12,1.34v5.1h-4.42V4.17h3.59l.12.38c.24-.14.51-.25.79-.34.43-.13.9-.2,1.4-.2.81,0,1.51.15,2.08.45.23.12.43.25.62.41.21-.17.45-.31.7-.43.59-.28,1.25-.43,1.95-.43,1.27,0,2.27.35,2.97,1.04.71.69,1.07,1.76,1.07,3.16v6.7h-4.4Z"/>
    <path class="cls-1" d="M47.04,14.91v-6.09c0-.66-.13-.84-.13-.84-.03-.04-.16-.05-.21-.05-.34,0-.4.1-.44.17-.12.21-.25.62-.25,1.44v5.37h-4.42v-6.09c0-.4-.05-.63-.09-.75-.03-.08-.05-.12-.06-.12h0s-.05-.02-.16-.02c-.17,0-.31.03-.37.08-.09.08-.17.24-.22.46-.08.35-.12.8-.12,1.34v5.1h-4.42V4.17h3.59l.12.38c.24-.14.51-.25.79-.34.43-.13.9-.2,1.4-.2.81,0,1.51.15,2.08.45.23.12.43.25.62.41.21-.17.45-.31.7-.43.59-.28,1.25-.43,1.95-.43,1.27,0,2.27.35,2.97,1.04.71.69,1.07,1.76,1.07,3.16v6.7h-4.4Z"/>
  </g>
  <g>
    <polygon class="cls-2" points="58.13 14.91 58.13 5.52 55.04 5.52 55.04 1.49 65.66 1.49 65.66 5.52 62.57 5.52 62.57 14.91 58.13 14.91"/>
    <polygon class="cls-1" points="58.13 14.91 58.13 5.52 55.04 5.52 55.04 1.49 65.66 1.49 65.66 5.52 62.57 5.52 62.57 14.91 58.13 14.91"/>
  </g>
  <g>
    <path class="cls-2" d="M68.82,15.07c-.74,0-1.44-.13-2.06-.37-.64-.25-1.21-.63-1.68-1.11-.47-.48-.84-1.08-1.1-1.77-.25-.67-.38-1.44-.38-2.29,0-1.13.21-2.11.62-2.92.43-.85,1.07-1.51,1.89-1.95.79-.43,1.72-.64,2.76-.64.99,0,1.88.22,2.66.64.8.44,1.43,1.09,1.89,1.93.44.82.66,1.81.66,2.94,0,.83-.12,1.6-.35,2.27-.24.7-.6,1.3-1.07,1.79-.47.49-1.04.87-1.7,1.12-.64.25-1.36.37-2.14.37ZM68.84,7.85c-.37,0-.45.13-.5.21-.13.2-.28.62-.28,1.46,0,.46.05.86.14,1.17.06.21.15.36.25.44.1.08.27.09.4.09.18,0,.31-.03.38-.09.1-.08.18-.23.24-.43.09-.31.14-.71.14-1.18s-.05-.86-.14-1.16c-.06-.2-.14-.34-.24-.43-.07-.06-.21-.09-.39-.09Z"/>
    <path class="cls-1" d="M68.82,15.07c-.74,0-1.44-.13-2.06-.37-.64-.25-1.21-.63-1.68-1.11-.47-.48-.84-1.08-1.1-1.77-.25-.67-.38-1.44-.38-2.29,0-1.13.21-2.11.62-2.92.43-.85,1.07-1.51,1.89-1.95.79-.43,1.72-.64,2.76-.64.99,0,1.88.22,2.66.64.8.44,1.43,1.09,1.89,1.93.44.82.66,1.81.66,2.94,0,.83-.12,1.6-.35,2.27-.24.7-.6,1.3-1.07,1.79-.47.49-1.04.87-1.7,1.12-.64.25-1.36.37-2.14.37ZM68.84,7.85c-.37,0-.45.13-.5.21-.13.2-.28.62-.28,1.46,0,.46.05.86.14,1.17.06.21.15.36.25.44.1.08.27.09.4.09.18,0,.31-.03.38-.09.1-.08.18-.23.24-.43.09-.31.14-.71.14-1.18s-.05-.86-.14-1.16c-.06-.2-.14-.34-.24-.43-.07-.06-.21-.09-.39-.09Z"/>
  </g>
  <g>
    <path class="cls-2" d="M78.82,15.07c-.74,0-1.44-.13-2.06-.37-.64-.25-1.21-.63-1.68-1.11-.47-.48-.84-1.08-1.1-1.77-.25-.67-.38-1.44-.38-2.29,0-1.13.21-2.11.62-2.92.43-.85,1.07-1.51,1.89-1.95.79-.43,1.72-.64,2.76-.64.99,0,1.88.22,2.66.64.8.44,1.43,1.09,1.89,1.93.44.82.66,1.81.66,2.94,0,.83-.12,1.6-.35,2.27-.24.7-.6,1.3-1.07,1.79-.47.49-1.04.87-1.7,1.12-.64.25-1.36.37-2.14.37ZM78.84,7.85c-.37,0-.45.13-.5.21-.13.2-.28.62-.28,1.46,0,.46.05.86.14,1.17.06.21.15.36.25.44.1.08.27.09.4.09.18,0,.31-.03.38-.09.1-.08.18-.23.24-.43.09-.31.14-.71.14-1.18s-.05-.86-.14-1.16c-.06-.2-.14-.34-.24-.43-.07-.06-.21-.09-.39-.09Z"/>
    <path class="cls-1" d="M78.82,15.07c-.74,0-1.44-.13-2.06-.37-.64-.25-1.21-.63-1.68-1.11-.47-.48-.84-1.08-1.1-1.77-.25-.67-.38-1.44-.38-2.29,0-1.13.21-2.11.62-2.92.43-.85,1.07-1.51,1.89-1.95.79-.43,1.72-.64,2.76-.64.99,0,1.88.22,2.66.64.8.44,1.43,1.09,1.89,1.93.44.82.66,1.81.66,2.94,0,.83-.12,1.6-.35,2.27-.24.7-.6,1.3-1.07,1.79-.47.49-1.04.87-1.7,1.12-.64.25-1.36.37-2.14.37ZM78.84,7.85c-.37,0-.45.13-.5.21-.13.2-.28.62-.28,1.46,0,.46.05.86.14,1.17.06.21.15.36.25.44.1.08.27.09.4.09.18,0,.31-.03.38-.09.1-.08.18-.23.24-.43.09-.31.14-.71.14-1.18s-.05-.86-.14-1.16c-.06-.2-.14-.34-.24-.43-.07-.06-.21-.09-.39-.09Z"/>
  </g>
  <g>
    <rect class="cls-2" x="84.01" y=".75" width="4.42" height="14.16"/>
    <rect class="cls-1" x="84.01" y=".75" width="4.42" height="14.16"/>
  </g>
  <g>
    <path class="cls-2" d="M92.36,15.07c-.67,0-1.28-.05-1.8-.13-.54-.09-1.07-.25-1.57-.45l-.62-.26v-4.25l1.43.68c.4.19.85.35,1.32.46.2.05.39.08.56.11-.1-.04-.21-.08-.32-.13-.59-.24-1.09-.49-1.5-.76-.49-.32-.87-.72-1.12-1.18-.26-.47-.39-1.03-.39-1.68,0-1.14.48-2.06,1.4-2.67.8-.53,1.83-.8,3.07-.8.64,0,1.25.07,1.81.2.54.13,1.09.31,1.64.55l.92.39-1.47,3.45c.37.29.66.62.87,1.01.25.47.38,1.05.38,1.72,0,.75-.18,1.41-.55,1.99-.37.58-.93,1.03-1.65,1.34-.66.28-1.46.41-2.42.41Z"/>
    <path class="cls-1" d="M92.36,15.07c-.67,0-1.28-.05-1.8-.13-.54-.09-1.07-.25-1.57-.45l-.62-.26v-4.25l1.43.68c.4.19.85.35,1.32.46.2.05.39.08.56.11-.1-.04-.21-.08-.32-.13-.59-.24-1.09-.49-1.5-.76-.49-.32-.87-.72-1.12-1.18-.26-.47-.39-1.03-.39-1.68,0-1.14.48-2.06,1.4-2.67.8-.53,1.83-.8,3.07-.8.64,0,1.25.07,1.81.2.54.13,1.09.31,1.64.55l.92.39-1.47,3.45c.37.29.66.62.87,1.01.25.47.38,1.05.38,1.72,0,.75-.18,1.41-.55,1.99-.37.58-.93,1.03-1.65,1.34-.66.28-1.46.41-2.42.41Z"/>
  </g>
</svg>